<svg t="1734012881962" class="icon" viewBox="0 0 1024 1024" version="1.1" xmlns="http://www.w3.org/2000/svg" p-id="3570"
    width="200" height="200">
    <path
        d="M876.422095 607.841524l51.346286 52.126476-198.948571 195.949714-120.612572-118.979047 51.395048-52.077715 69.241904 68.364191 147.577905-145.383619zM853.333333 170.666667a73.142857 73.142857 0 0 1 73.142857 73.142857v316.952381h-73.142857V243.809524H170.666667v536.380952h390.095238v73.142857H170.666667a73.142857 73.142857 0 0 1-73.142857-73.142857V243.809524a73.142857 73.142857 0 0 1 73.142857-73.142857h682.666666z m-73.142857 316.952381v73.142857H536.380952v-73.142857h243.809524z m-422.351238-157.379048a9.752381 9.752381 0 0 1 4.437333 4.437333l28.379429 57.539048a9.752381 9.752381 0 0 0 7.363048 5.315048l63.488 9.240381a9.752381 9.752381 0 0 1 5.38819 16.627809l-45.933714 44.78781a9.752381 9.752381 0 0 0-2.80381 8.630857l10.849524 63.24419a9.752381 9.752381 0 0 1-14.140952 10.264381l-56.807619-29.842286a9.752381 9.752381 0 0 0-9.069715 0l-56.807619 29.842286a9.752381 9.752381 0 0 1-14.140952-10.264381l10.849524-63.24419a9.752381 9.752381 0 0 0-2.80381-8.630857L240.152381 423.399619a9.752381 9.752381 0 0 1 5.38819-16.627809l63.488-9.240381a9.752381 9.752381 0 0 0 7.363048-5.315048l28.379429-57.539048a9.752381 9.752381 0 0 1 13.06819-4.437333zM780.190476 341.333333v73.142857H536.380952v-73.142857h243.809524z"
        p-id="3571" fill="#ffffff"></path>
</svg>